/* XPM */
static char *_6f6e1a9a39944ff9172ce9d6f06a68cB2SntK0zNR8FubJ8[] = {
/* columns rows colors chars-per-pixel */
"64 66 239 2 ",
"   c None",
".  c #3A2F12",
"X  c #563907",
"o  c #4C3A14",
"O  c #4C3819",
"+  c #533D17",
"@  c #4C360D",
"#  c #533C26",
"$  c #603E02",
"%  c #5A420B",
"&  c #594517",
"*  c #674B09",
"=  c #6D530C",
"-  c #6D5205",
";  c #765A06",
":  c #7B5C06",
">  c #73550B",
",  c #765A0B",
"<  c #7B5D0C",
"1  c #795708",
"2  c #644B1B",
"3  c #654917",
"4  c #6A5318",
"5  c #755A12",
"6  c #7B5D13",
"7  c #73541B",
"8  c #7B5C1A",
"9  c #745817",
"0  c #7D6106",
"q  c #7E610C",
"w  c #7D6213",
"e  c #7D631A",
"r  c #594628",
"t  c #5A4B32",
"y  c #654C25",
"u  c #6B5423",
"i  c #6A5528",
"p  c #785B27",
"a  c #6A5837",
"s  c #765A33",
"d  c #614830",
"f  c #7B6226",
"g  c #7B6536",
"h  c #6E613A",
"j  c #7C6747",
"k  c #7C6D54",
"l  c #835E0B",
"z  c #875F07",
"x  c #825E12",
"c  c #825F1C",
"v  c #8D6506",
"b  c #82640C",
"n  c #8B650C",
"m  c #86690E",
"M  c #8C6A0C",
"N  c #896906",
"B  c #936D0D",
"V  c #946B0A",
"C  c #96720D",
"Z  c #9B750D",
"A  c #9D790D",
"S  c #947006",
"D  c #836413",
"F  c #8A6513",
"G  c #856914",
"H  c #8A6B14",
"J  c #84641B",
"K  c #89651D",
"L  c #85691B",
"P  c #8B6C1B",
"I  c #936D13",
"U  c #936D1B",
"Y  c #976C19",
"T  c #8D711C",
"R  c #8D7112",
"E  c #967212",
"W  c #9B7513",
"Q  c #9E7914",
"!  c #94731B",
"~  c #9B741B",
"^  c #9D791B",
"/  c #96791F",
"(  c #A37C0D",
")  c #A1790B",
"_  c #A27C13",
"`  c #A37D1B",
"'  c #A87D16",
"]  c #825B24",
"[  c #875C2C",
"{  c #885D37",
"}  c #846523",
"|  c #8A6523",
" . c #8C6C23",
".. c #83642B",
"X. c #8B642B",
"o. c #8C6B2A",
"O. c #866926",
"+. c #926C23",
"@. c #936C2B",
"#. c #976C26",
"$. c #8D7224",
"%. c #8E722A",
"&. c #937323",
"*. c #9B7423",
"=. c #9D7B22",
"-. c #93742A",
";. c #9C742C",
":. c #95792B",
">. c #9A7A2C",
",. c #967C23",
"<. c #836333",
"1. c #8C6433",
"2. c #886838",
"3. c #936633",
"4. c #936B33",
"5. c #936B3B",
"6. c #956739",
"7. c #8C7236",
"8. c #937433",
"9. c #9B7C33",
"0. c #977637",
"q. c #A37E22",
"w. c #A57C2A",
"e. c #A37D32",
"r. c #A57A3C",
"t. c #866B45",
"y. c #966A44",
"u. c #8C734B",
"i. c #987845",
"p. c #887857",
"a. c #987954",
"s. c #A27648",
"d. c #A77548",
"f. c #867865",
"g. c #AA820E",
"h. c #A5800C",
"j. c #AB8214",
"k. c #A6811B",
"l. c #AA831B",
"z. c #AA8617",
"x. c #B48C1A",
"c. c #B4891A",
"v. c #BD931E",
"b. c #9D8126",
"n. c #9D8235",
"m. c #A48524",
"M. c #A98729",
"N. c #B58C27",
"B. c #BC952D",
"V. c #B99224",
"C. c #A4843B",
"Z. c #A88836",
"A. c #BA9535",
"S. c #B28D3E",
"D. c #BFA03F",
"F. c #C5992A",
"G. c #C49934",
"H. c #C4A33C",
"J. c #CBA73A",
"K. c #D7AC37",
"L. c #DCB33C",
"P. c #DAB135",
"I. c #D2A62E",
"U. c #E1B73E",
"Y. c #9A8556",
"T. c #97834D",
"R. c #A78747",
"E. c #AC9243",
"W. c #AC904B",
"Q. c #B99744",
"!. c #A88759",
"~. c #AB9458",
"^. c #BB9957",
"/. c #B28B51",
"(. c #BDA34E",
"). c #96876F",
"_. c #AA8861",
"`. c #B7986D",
"'. c #BA9975",
"]. c #AC9171",
"[. c #B9A770",
"{. c #C39B55",
"}. c #C19C4E",
"|. c #CBAB43",
" X c #C7A446",
".X c #D3B34C",
"XX c #D8B648",
"oX c #C8A959",
"OX c #D4AA5A",
"+X c #DCBB53",
"@X c #D6B656",
"#X c #D6AC49",
"$X c #E4BA45",
"%X c #E4BA49",
"&X c #E3BD55",
"*X c #E2BA58",
"=X c #C49C6D",
"-X c #C19B64",
";X c #C39B79",
":X c #C7A666",
">X c #D3AB66",
",X c #DCB768",
"<X c #CAAA7B",
"1X c #C7A677",
"2X c #D1AE74",
"3X c #D9B478",
"4X c #CCB374",
"5X c #E4BA67",
"6X c #E2BD79",
"7X c #E6C358",
"8X c #E5C14F",
"9X c #DBC47C",
"0X c #DCC06E",
"qX c #E8C764",
"wX c #E6C777",
"eX c #ECD17A",
"rX c #F3D677",
"tX c #DDC05A",
"yX c #B79C85",
"uX c #BAA489",
"iX c #C5A482",
"pX c #C9AA87",
"aX c #D2AD83",
"sX c #CCB38A",
"dX c #D7B888",
"fX c #D3B893",
"gX c #CAB097",
"hX c #E2BC96",
"jX c #D6BCA4",
"kX c #D5C489",
"lX c #DCC193",
"zX c #E5C485",
"xX c #E2D59B",
"cX c #EFD78F",
"vX c #F9E28A",
"bX c #F8E496",
"nX c #EAD4A7",
"mX c #F8E9AB",
"MX c #F8ECAB",
/* pixels */
"                                                                                                                                ",
"                                                                                                                                ",
"                                                                                                                                ",
"                                                                                                                                ",
"                                                            jXjXuXyXyXuX                                                        ",
"                                                  jXjXnXlXhXhXfXpX[.].!.a.u.).].                                                ",
"                                          [.1X<XdXpX!.i.y.<.{ <.g t.2.p p f g i g t.Y.                                          ",
"                                      !.R.W.^.R...6 9 9 O.} <.7.2.] 8 p 7 4 3 3 2 4 u h Y.                                      ",
"                                  Y.0.8.,.-.%.e w b ! ,.L 5 8 f J e w 5 J e L e 9 4 % * & i T.                                  ",
"                                2.:.>.P D L w , q < b < < < 5 5 6 w w q w = q G G %.e 9 * % & a                                 ",
"                            p.g O.} J L > - - ; D l < 1 < 6 < 6 6 6 ; w , , G G q H ,.b.b.% @ o t yX                            ",
"                          u.i 7 9 O.L = = = 6 P m b D D H D H G G w q G q ; G H G G T ,.b.b.w % . # f.                          ",
"                        t.u 4 9 6 5 = e w G J G b 0 D G b D H G b H ! G D q G J w q w q G T Z.%.r O # k                         ",
"                      p.s 2 f J 5 - 5 T T w ; q b q L H q b L D G G T H q w w w e w ; ; q b G :.s # O # ).                      ",
"                    j s y f -.w e w ,.G q q , q b q P H G D G G J L J G D q < < q < 6 D q w q e { k # O t f.                    ",
"                  k i 7 | o.P J T T e G w q w q q b m b b q G D b G b J w D D b L D L D w w e G s s t.# & t ).                  ",
"                  i u f ,.D q P H T G R T w 0 w < m m b b 0 b b G D D P D b m T J P P P e 6 J ,.@...2.t.+ O a                   ",
"                j u f :.G > J T G b H b q w , , q b 0 0 b R m b b q b P G G m n 0 G &. .o.} e 9.e.8.{ t.i + # p.                ",
"              k y f n.:.5 6 K L b 0 b 0 ; - - ; b b q 0 0 0 0 b b b G H H H P m b D P  .8.O.}  .>.0.2.{ y.s % t                 ",
"              i u :.:.O.9 6 G D b m 0 0 ; , ; 0 b b ; ; q D D l b l D H I H H $.D G J  .O.$. .6 +.0.5.y.s 2.3 O s               ",
"            k i f 9.O.e G e e w q b 0 0 0 q R H m b q < > 6 J 6 5 6 &.E.^.(.n.e 5 6 L J  .J x c +.-.3.2.{ 1.[ X &               ",
"            a i 8.:.L e L T q w 0 q 0 b b m / m q , 6 f 8.0.7.7.<.i.T.g i h i.R. .5 6 D L +.-.@.+. .+.2.5.X.0.7 @ j             ",
"            d { C.>.L L T q 0 q H G b 0 m m T w - %.R.u.s y 2 y 2 2 & + & & & 7.~.J 6 w D &.;.;.@.@.@.3.0.@.| O.X y             ",
"          j y R.Z.$.$.L w w q q R R b b b b q - :.!.p 9 f 8.:.$.o.4 & r & o & 2 p -.w D b L +.-.&.@.[ 1.3.4.c 1.7 %             ",
"          a ..C.:. .T P w q , 0 N N m 0 m b b R.i.7 o.P / b.b.b.G 4 & & & o & u & e w q T P P P +.] ] [ [ @.x p ] % t.          ",
"        ).s :.n.%.&.L 6 G < , b m / m 0 n P C.<.p %.:.(..X|.|..X(.Z.b.e 4 % & g 4 e q m T %.+. .K ] 8 ] [ 4.+.c 4.3 i           ",
"        u.g >.%.O.o.L 6 L w w b q m 0 q L n.T.f $.M..X@XXX+X7X+X|.D.H.M.R 5 4 u s n.m b H P H P K x 8 p 2.4.r.| ;.7 3           ",
"        u...8. .J L J e G w w b R R q w C.~.u b.b..X.X+X*X*X@X@X.XH.K.XX(.m.R e 7 7.T D D H D  .K J J p 1.4.r.@.@.c = Y.        ",
"        u.2.-.o.} J J 8 J 6 D P G G q $.kX~.4 b.H.tXJ.tX7X7X*X+XD.A.L.L.L.J.z.R F & %.q b G < D D G J ] X.@.r.#.+. .= u.        ",
"        i.5.-. .L } w 6 8 6 6 G D w G :X4Xn.b.D.XXXXtXtX7X+X@X@X(.|.L.L.L.P.B.h.F & 7.>.b D D D D l D } X.@.4.e.+.&.5 2.        ",
"        a.9.9.$.6 L } e 6 5 6 U b : Z.(.S.n.E.|.XXJ.|.XX+XtXeXcXeXrX8XL.P.U.L.B.k.4 s n.0 G D D D : G J @.@.3.3.] >.9.7.        ",
"        Y.i.o.} e p } e D 6 L P H D W.Z.Z.C.(.+XtXH.|.+X.XeX0X0X0XtXqXU.P.P.U.J.x.P 4 Z.N P &.G G D < 6 c ] y.6.] 0. .7.        ",
"      ]._.W.5.1...o. .8 D L H b q T n.D.S.C.oX.XXX|.+XK..XoXoXoX(..X.X&XK.P.L.P.V.m.& 9.E H 6 D P G < 6 c ] { 6.3.[ X.d.        ",
"        ].~.y.7.X.%.8 x D P G b 0 T %.S.oXE.0X.XA.A.D.J.H.&.J K n.T m.XXL.L.L.P.XXQ.2 Z.I D < D D D < < | [ 6.r.3.1./.^.        ",
"        '._.y.o.}  .L J G U H b m R T f oXE.wX.X|.A.N. XN.4 X X % % ^ I.P.P.8XXX7XQ.2 S.Q ! L D < D b 6 c #.6.d.3.[ /.{.        ",
"        aX_.y.o.K P H D D P H P M E b.5 7.7.9XoX(.V.m.D.H.M.* = 5 0 B.P.I.U.8X7XrXR.i S.B P J J D < 6 6 K #.;.Z.Y @.oX=X        ",
"        dX_.y.+.! ! H E b / n E E E m.m...+ 1XcXtX+XXX$X$X$XB._ z.x.P.I.I.P.8XrXcXg O.M.b G 6 8 5 6 < x | K +.q.P m.oX<X        ",
"        dX=Xs.e.=.~ k.^ C ^ M P H M ~ E 9.& Y.cXrX8X8X$X$X$XU.U.I.I.P.P.P.8XrXbX9X& b.m.l 6 6 > > > 6 6 K K *.*.H Z.:XpX        ",
"        fX<Xs.>.=.m.M.k.^ ^ n I H v I E ,.u i kXcX7X8X8X$X$XU.U.P.I.P.P.U.qXrXvXT.2 m.N : D x < x 6 6 > 6 x +.F H Q.>XfX        ",
"          pXW.s.e.` m.b.~ ! E C B M C C W b.y j kXcX+X$X$X$X$XU.$XL.U.7XrXvXbXY.+ :.q.b ; < 6 x F c 6 9 8 c | H U >X2X          ",
"          fX'.R.C.q.~ I I ~ W C Z W _ Z A m.8.O h xXwXqX7X7X+X+X7XqXrXbXmXMX[.y 4 M.Q b : 1 < l < <  . .| c #.#.e.6XdX          ",
"          fX'.i.e.=.` q.~ q.! W C Z _ E _ A q.2.& h kXxXbXcXvXvXbXbXMXMXxX[.R.E.M.z.A C n D x x l x K  .#.K *.#.e.6XlX          ",
"            dX/.;.~ E ` _ ~ U U ^ A _ I ^ Q Z M.$.& O j [.xXnXMXMXxXkX^.E.@X@XZ.R C A C n H I I l 6 c c ] #.6.6./.aX            ",
"            dXoXZ.~ W ^ ` ` ~ F Q A ` ` I A j.x.v.M.u @ . t t a i r T.@XwXqXoXT S S S C n P I n < c @.| { 6.y.d.;XgX            ",
"            fXdX{.*.E Q z.M.h.E ^ _ ` ` S A h.z.x.x.B.Z.o.u u p i e 9. X(.E.L E A C M v n M H x K #.X.] { y.y.a.iXjX            ",
"              zX5XZ.~ U W N.z.j._ E ` j.j.( ( g.( g.x.V.B.G.A.G.A.A.` H G G I _ A C S V b D D F +.1.[ 1.d.d.d.pXsX              ",
"              dXwX}.! Y / k.l.` ` ` E j.A ( ( h.j.g.g.g.' c.( x.x.F.j._ E E Z ) A A A V n ! U U X.{ 6.y.y.y.!.<XfX              ",
"                fX6XS./ ^ A l.M.~ ` _ j.Z Z Z Q ' ' ( ' ' ' h.g.v.x.( Z C W Q Z Z ) j.N.V ~ U #.3.y.d.y.{ y.'.gX                ",
"                  zX,XQ.` Q B ` Y ~ k.j._ E E W W W B E _ _ ( h.( A S S I I B V V ' ' ' ' ' *.#.3.y.6.{ d.iXpX                  ",
"                  lX3X:XZ.' v I Y _ k.( Q Q Q B B E v I Z A j.A A Z Z W B V V V V V ) ' c.' W Y #.r.{ { iXiX                    ",
"                    fX3X{.N.` E B C _ Q A k.k.B n I I I W _ ( ) h.A Z E n n V V v v ) ' c.j.c.N.;.6.6.;XdXpX                    ",
"                      hX3X}.A.` H ~ E Z _ _ Q n F Y I Y E _ S v B Q B v n v I V z V ( j.c.v.N.N.3.6.=XaXpX                      ",
"                        dX3X}.N.K Y _ ^ _ _ Y n Y #.Y Y ^ l._ B I I n B ) _ _ _ ' ( ' v.v.N.` *.6.=XaXgX                        ",
"                          dX3XOXw.Y E _ _ Z v Y Y Y x I Q A A V n z I B W V B _ ' c.c.v.V.~ K 8.=X;XpX                          ",
"                            aXdX{.G.w.` N.` V Z E I x I ^ _ A v l l B n z V ) ' ' ( v.F.A.] s.=X;XuX                            ",
"                              aXdXwXOXG.B.G.F.F.l.~ l V S S N v < n Y n v Z ' c.v.F.F.M.;.{.aXiXpX                              ",
"                                fXdX3XOX}.J.K.F.G.N.I I W Z ' ' Y ' ' ` Y ' ' G.G.G.A.Q.:X<XiX                                  ",
"                                    kXdX,X5X*XK.K.F.c.) I ' F.G.G.F.w.w.;.;.*./.Q.}.-X1XaXsX                                    ",
"                                        sX3X2X>X,XOX#X XG.F.F.#X%XG.;.;.r./.{.-X<X1X'.                                          ",
"                                            pX1X1X,X,X5X5X,X>X5X,XOX=X=X2XaXaX1XpXfX                                            ",
"                                                    fX2X2X2X3X3X2X<X<XiXiXgX                                                    ",
"                                                                                                                                ",
"                                                                                                                                ",
"                                                                                                                                ",
"                                                                                                                                ",
"                                                                                                                                "
};
