/* XPM */
static char *cb498925a97245e7d9bd2ddec76eb462osgx9RlFoWWcKFvw[] = {
/* columns rows colors chars-per-pixel */
"16 16 66 1 ",
"  c None",
". c black",
"X c #0C0000",
"o c #160000",
"O c #290000",
"+ c #2B0000",
"@ c #2D0000",
"# c #370000",
"$ c #410000",
"% c #440000",
"& c #510000",
"* c #540000",
"= c #560000",
"- c #610000",
"; c #620000",
": c #650000",
"> c #660000",
", c #740000",
"< c #760000",
"1 c #800000",
"2 c #820000",
"3 c #840000",
"4 c #860000",
"5 c #870000",
"6 c #8D0000",
"7 c #910000",
"8 c #940000",
"9 c #960000",
"0 c #9C0000",
"q c #A20000",
"w c #AB0000",
"e c #B60000",
"r c #B70000",
"t c #B80000",
"y c #BC0000",
"u c #BF0000",
"i c #BD0202",
"p c #C30000",
"a c #C50000",
"s c #CC0000",
"d c #D00000",
"f c #D10000",
"g c #D70000",
"h c #DA0000",
"j c #DB0000",
"k c #DF0000",
"l c #E30000",
"z c #EA0000",
"x c #EF0000",
"c c #F20000",
"v c #F60000",
"b c #F80000",
"n c red",
"m c #FF0303",
"M c #FF0404",
"N c #FF0D0D",
"B c #FF1010",
"V c #FF1818",
"C c #FF3D3D",
"Z c #FF4B4B",
"A c #FF6262",
"S c #FF6C6C",
"D c #FF9B9B",
"F c #FFB8B8",
"G c #FFBDBD",
"H c #FFF9F9",
/* pixels */
"  .....  .....  ",
" .7dgjO..Ojciw. ",
".;iMnn4$$4nnae%.",
".xVHFnn11nnnnp1.",
".xASnnnnnnnnnd,.",
".lBNnnnnnnnnne4.",
".lCZnnnnnnnnnp6.",
".xDGnnnnnnnnnl9.",
" .ennnnnnnnne;. ",
" .&qnnnnnnn0>O. ",
"  .=jnnnnvs,@.  ",
"   .onnnnz4X.   ",
"     .bnp4.     ",
"     .>94#.     ",
"      .==.      ",
"       ..       "
};
